<svg xmlns="http://www.w3.org/2000/svg" xmlns:xlink="http://www.w3.org/1999/xlink" width="400" height="400" viewBox="0 0 400 400">
<rect data-name="background" width="100%" height="100%" fill="#efe5df"/><g data-name="monogram" fill="#ff0000" data="id:76" transform="translate(125.60012235033759,-49.39479069143272) scale(4.7208039223345155)"><path d="M3.52,29.6l13.08,0q2.96,0,5.12,1.02t3.36,2.78t1.2,4.04q0,2.64-1.06,4.38t-2.86,2.14l0.04,0.12q1.2,0.08,2.5,1.06t2.2,2.7t0.9,4.16q0,2.56-1.26,4.54t-3.64,3.12t-5.74,1.14l-13.84,0l0-31.2z M17.36,58.88q4.04,0,6.38-1.9t2.34-4.98q0-1.8-0.86-3.46t-2.34-2.76t-3.28-1.26l-0.16-0.56q2-0.4,3.06-1.48t1.46-2.46t0.4-2.58q0-2.68-2.16-4.3t-5.6-1.62l-11.16,0l0,27.36l11.92,0z M8.88,33.56l6.6,0q2.36,0,3.92,1.44t1.56,3.8q0,2.24-1.36,3.62t-3.96,1.38l-6.76,0l0-10.24z M15.64,41.88q1.64,0,2.52-0.84t0.88-2.24q0-1.52-1.02-2.42t-2.54-0.9l-4.68,0l0,6.4l4.84,0z M8.88,45.56l7.24,0q2.84,0,4.66,1.48t1.82,4q0,2.6-1.66,4.12t-4.62,1.52l-7.44,0l0-11.12z M16.32,54.76q2,0,3.18-0.98t1.18-2.74q0-1.72-1.3-2.64t-3.26-0.92l-5.32,0l0,7.28l5.52,0z"/></g><g data-name="business_name" fill="#d8092f" data="id:246" transform="translate(61.122950730199896,239.03754363190603) scale(1.4514299906564083)"><path d="M5.56,30.92c-0.08-1.6,1.56-2.4,2.84-1.88l0-4.92c0-1.16-0.8-2.16-1.64-2.44c2.76-0.56,3.44-2.44,5.64-3c1.36-0.32,2.68,0.08,4,1.4c-3-0.4-3.64,2.28-3.64,3.72l0,5.52c0.92,0.16,2.12,0.04,3.28-0.32c6.56-2,6.76-9.32,1.84-12.24c-1.52-0.92-4.52-0.92-5.36,0.68c-0.48-0.56-0.56-1.12-0.44-1.6c-8.32,1.16-8.44,10.92-4.72,9.92c-0.28,2.28-3.72,2.4-4.92,0.76c-5.16-0.6-2.44-14.44,11.96-13.68c1.56,0.08,2.96,0.32,4.2,0.68c7.96,2.32,10.68,11.64,3.64,16.68c7.24,3.08,6.72,17.6-2.84,17.56c-6.48-0.04-7.56-7.48-3.36-8.52c1.56-0.4,3.28,0.32,3.4,2.2c-3.04-0.4-3.64,4.64,0.04,4.12c3.8-0.52,4.8-12.48-2.76-12.76c-1.28-0.08-2.44,0.32-3.96,0.24c0,2.92,0.04,5.8,0.04,8.72c-0.16,3.24,1.12,4.84,2.72,5.8c-5.48-0.4-5.36,0.84-8.52,1.08c-5.64,0.4-4.56-6.64-0.28-5c-1.56,0.48-1.16,3.64,0.32,3.56c0.52-0.04,0.96-0.52,1.12-1.44c0.24-1.12,0.24-3.84,0.24-6.24l0-5.96c0-1.48-1.36-2.96-2.84-2.64z M40,23.68l-1.8,8c1.4,0.36,2.6,0.76,3.6,0.88z M37.28,35.72l-0.4,1.84c-0.28,1.2,0.36,2.24,1.4,2.44l-8.28,0c1.12-0.2,2.28-1.4,2.48-2.4l0.52-2.28c-0.64,0.04-1.2,0.24-1.56,0.6c-0.4-2.28-0.12-4.48,2.52-4.8l1.8-8c0.28-1.12,0.12-2.16-0.88-2.36l10.36,0c-1,0.2-1.2,1.24-0.96,2.36c0.96,4.84,1.92,9.68,2.88,14.48c0.2,1,1.36,2.2,2.44,2.4l-8.28,0c1.04-0.2,1.68-1.24,1.44-2.44l-0.16-0.96c-1.2,0.04-3.24-0.48-5.32-0.88z M59.8,20.76c-1.92,0.36-2.84,1.92-1.84,3.48c1.44,2.32,4.56,3.56,7.24,5.56l0-6.68c0-1.12-1.28-2.16-2.32-2.36l9,0c-1.12,0.2-2.32,1.24-2.32,2.4l0,14.4c0,1.2,1.2,2.24,2.32,2.44l-9,0c2.2-0.4,2.84-2.68,1.92-4.48c-1.32-2.6-4.56-3.88-7.32-5.88l0,7.92c0,1.2,1.2,2.24,2.32,2.44l-9,0c1.04-0.2,2.32-1.24,2.32-2.4l0-14.48c0-1.12-1.28-2.16-2.32-2.36l9,0z M82.08,20.76c-1.12,0.2-2.32,1.24-2.32,2.4l0,4.92l4.68-7.36l6,0c-0.72,0.2-1.44,0.76-2.4,1.92l-4.2,6.4c0.64,1.72,2.6,6.44,4.16,7.84c0.8,0.68,1.76,1.08,3.16,0.88c-1.04,2.96-4.16,3.84-6.36,2.04c-1.44-1.16-2.88-4.12-3.84-6.36l-1.2,1.76l0,2.36c0,1.2,1.2,2.24,2.32,2.44l-9,0c1.04-0.2,2.32-1.24,2.32-2.4l0-14.48c0-1.12-1.28-2.16-2.32-2.36l9,0z M95,32.48c-0.28,5.12,8.68,5.28,8.68,1.64c0-2-7.24-1.52-9.56-3.56c-3.04-2.64-2.12-8.24,2.6-9.72c2.24-0.72,5.36-0.76,7.6-0.04c1.92,0.64,2.32,0.88,3.36,0.32l-2.76,6.08c0.04-0.68-0.16-1.24-0.52-1.72c-1.88-2.48-7.96-2.32-7.96,0.92c0,2.84,9.44,0.64,11.32,5.84c1.16,3.2-1.08,7.48-6.04,8.08c-3.24,0.4-6.64-0.44-8.16-2.2c-1.32-1.52-1.32-4.04,1.44-5.64z M122.56,24.72l-2.36,0l0,12.84c0,1.2,1.2,2.24,2.32,2.44l-9,0c1.04-0.2,2.32-1.24,2.32-2.4l0-12.88l-2.4,0c-0.92,0-3,0.36-4.16,2.4l1-6.72c0.36,0.28,0.64,0.32,1.28,0.32l12.88,0c0.68,0,0.96-0.04,1.28-0.32l1.04,6.72c-1.16-2.04-3.24-2.4-4.2-2.4z M145.96,30.12c0.2,13.6-18.12,13.68-17.96,0.08c0.08-9.56,9.36-12.2,14.56-7.92c0.84,0.64,1.12,1.44,0.88,2.32c0.36,0.04,0.96-0.4,1.52,0.84c0.6,1.28,0.96,2.88,1,4.68z M132.32,30.04c-0.28,7.84,9.4,8,9.32,0.24c0-0.92-0.16-1.76-0.4-2.44c-0.88,0.4-1.72,0.4-1.88,0.2c1.08-1.16,0.84-2.32-0.56-2.96c-2.72-1.32-6.36,0.32-6.48,4.96z M156.2,20.76c-1.92,0.36-2.84,1.92-1.84,3.48c1.44,2.32,4.56,3.56,7.24,5.56l0-6.68c0-1.12-1.28-2.16-2.32-2.36l9,0c-1.12,0.2-2.32,1.24-2.32,2.4l0,14.4c0,1.2,1.2,2.24,2.32,2.44l-9,0c2.2-0.4,2.84-2.68,1.92-4.48c-1.32-2.6-4.56-3.88-7.32-5.88l0,7.92c0,1.2,1.2,2.24,2.32,2.44l-9,0c1.04-0.2,2.32-1.24,2.32-2.4l0-14.48c0-1.12-1.28-2.16-2.32-2.36l9,0z M171.96,14.64c1.2,0,2.24,0.88,2.4,2.04c0.36,1.96-0.72,5.16-3.8,5.16l-0.32-0.92c0.64,0,1.72-0.64,1.8-1.36c-1.4,0.04-2.56-1.08-2.56-2.48c0-1.36,1.12-2.44,2.48-2.44z M178.28,32.48c-0.28,5.12,8.68,5.28,8.68,1.64c0-2-7.24-1.52-9.56-3.56c-3.04-2.64-2.12-8.24,2.6-9.72c2.24-0.72,5.36-0.76,7.6-0.04c1.92,0.64,2.32,0.88,3.36,0.32l-2.76,6.08c0.04-0.68-0.16-1.24-0.52-1.72c-1.88-2.48-7.96-2.32-7.96,0.92c0,2.84,9.44,0.64,11.32,5.84c1.16,3.2-1.08,7.48-6.04,8.08c-3.24,0.4-6.64-0.44-8.16-2.2c-1.32-1.52-1.32-4.04,1.44-5.64z"/></g></svg>